<svg fill="none" xmlns="http://www.w3.org/2000/svg" viewBox="0 0 1208 1367">
  <path fill-rule="evenodd" clip-rule="evenodd" d="M1207.82 384.506v68.606a37.64 37.64 0 0 1-5.05 18.866 37.72 37.72 0 0 1-13.8 13.81L967.918 613.38l197.422 113.634a84.88 84.88 0 0 1 31.08 31.092 84.857 84.857 0 0 1 11.36 42.464v182.809a84.847 84.847 0 0 1-11.35 42.491 84.88 84.88 0 0 1-31.09 31.11l-519.373 297.95a84.853 84.853 0 0 1-42.436 11.37 84.864 84.864 0 0 1-42.436-11.37l-169.746-98.12a18.815 18.815 0 0 1-6.906-6.91 18.81 18.81 0 0 1-2.532-9.43c0-3.31.873-6.56 2.532-9.43a18.89 18.89 0 0 1 6.906-6.91l561.104-322.936a9.48 9.48 0 0 0 3.47-3.455 9.437 9.437 0 0 0 0-9.453 9.457 9.457 0 0 0-3.47-3.455L744.137 764.499a37.726 37.726 0 0 0-37.719 0L136.166 1092.77a28.325 28.325 0 0 1-14.146 3.79c-4.966 0-9.845-1.31-14.145-3.79l-64.503-36.97a84.888 84.888 0 0 1-31.276-31.1A84.856 84.856 0 0 1 .652 982.106v-74.829a28.284 28.284 0 0 1 3.786-14.157 28.316 28.316 0 0 1 10.36-10.365L832.12 413.268a9.411 9.411 0 0 0 4.739-8.18 9.409 9.409 0 0 0-4.739-8.179L623.476 276.198a37.72 37.72 0 0 0-37.719 0L29.367 596.359a18.847 18.847 0 0 1-9.437 2.525 18.843 18.843 0 0 1-16.337-9.449 18.842 18.842 0 0 1-2.516-9.438V383.612a84.867 84.867 0 0 1 42.672-73.606L562.841 12.104a84.88 84.88 0 0 1 84.636 0l518.103 298.8a84.803 84.803 0 0 1 30.98 31.141 84.79 84.79 0 0 1 11.26 42.461Z" fill="#7524F9"/>
</svg>