<svg fill="none" xmlns="http://www.w3.org/2000/svg" viewBox="0 0 1191 1169">
  <path d="M973.222 0H217.434C96.822 0 0 95.04 0 213.459v742.082C0 1073.96 96.822 1169 217.434 1169h755.759c118.917 0 217.437-95.04 217.437-213.459V213.459C1190.63 95.039 1093.8 0 973.193 0h.029ZM789.806 291.841c88.318 0 159.656 70.023 159.656 156.763 0 26.653-6.81 51.67-18.704 75.02-20.37-14.992-42.435-28.348-66.224-36.677 6.78-11.69 10.2-25.017 10.2-38.343 0-45.036-37.379-81.713-83.233-81.713-45.884 0-83.233 36.677-83.233 81.713 0 13.326 3.39 26.653 10.199 38.343-23.789 8.329-47.578 20.019-66.253 36.677-13.589-23.35-18.704-48.367-18.704-75.049-3.361-86.711 67.978-156.734 156.296-156.734ZM400.821 877.159c-88.289 0-159.627-70.023-159.627-156.734h76.423c0 45.007 37.379 81.714 83.233 81.714 45.854 0 83.233-36.707 83.233-81.714h76.423c0 86.711-71.338 156.734-159.656 156.734h-.029Zm0-220.123c-101.878 0-185.111-81.713-185.111-181.779 0-100.037 83.233-183.416 185.14-183.416 101.908 0 186.836 81.713 186.836 183.416-1.696 100.066-84.928 181.779-186.836 181.779h-.029Zm388.985 220.123c-101.908 0-186.836-81.713-186.836-181.779 0-101.703 83.233-183.416 186.836-183.416 101.907 0 185.14 81.713 185.14 183.445 0 100.037-83.233 181.779-185.14 181.779v-.029Zm110.382-183.416c0 60.028-49.244 106.701-110.382 106.701-61.139 0-110.412-48.339-110.412-106.701 0-60.057 49.273-108.425 110.412-108.425 61.138 1.695 110.382 50.034 110.382 108.425Zm-390.65-218.486c0 60.057-49.244 108.425-110.383 108.425-61.168 0-110.412-48.368-110.412-108.425 0-60.028 49.244-108.396 110.412-108.396 62.834 0 110.383 48.368 110.383 108.425v-.029Z" fill="#D9B432"/>
</svg>