<svg fill="none" xmlns="http://www.w3.org/2000/svg" viewBox="0 0 3059 3059">
  <path d="M1529.5.656C684.506.656.66 684.502.66 1529.5c0 844.99 683.846 1528.84 1528.84 1528.84 844.99 0 1528.84-683.85 1528.84-1528.84C3058.34 684.502 2374.49.656 1529.5.656Zm0 2423.414c-493.77 0-894.578-400.8-894.578-894.57 0-493.78 400.808-894.582 894.578-894.582s894.58 400.802 894.58 894.582c0 493.77-400.81 894.57-894.58 894.57Z" fill="url(#a)"/>
  <path d="M1746.41 1816.65h-433.86c-37.18 0-68.17-30.99-68.17-68.18v-435.92c0-37.19 30.99-68.18 68.17-68.18h435.93c37.19 0 68.18 30.99 68.18 68.18v435.92c0 37.19-30.99 68.18-70.25 68.18Z" fill="#2059EB"/>
  <defs>
    <linearGradient id="a" x1="1529.5" y1="3058.34" x2="1529.5" y2=".656" gradientUnits="userSpaceOnUse">
      <stop stop-color="#1447EA"/>
      <stop offset="1" stop-color="#2B65FB"/>
    </linearGradient>
  </defs>
</svg>