<svg fill="none" xmlns="http://www.w3.org/2000/svg" viewBox="0 0 1533 1419">
  <path d="M1452.2 6.242 857.719 446l110.844-259.24L1452.2 6.242Z" fill="#E17726" stroke="#E17726" stroke-width="11.311" stroke-linecap="round" stroke-linejoin="round"/>
  <path d="M81.325 6.242 670.38 449.618 564.966 187.212 81.324 6.242ZM1238.17 1025.55l-158.35 241.6 338.87 93.2 96.82-329.37-277.34-5.43v0Zm-1219.733 5.43 96.367 329.37 337.961-93.2-157.444-241.6-276.884 5.43v0Z" fill="#E27625" stroke="#E27625" stroke-width="11.311" stroke-linecap="round" stroke-linejoin="round"/>
  <path d="m434.716 617.553-94.105 142.062 334.794 15.382-10.858-360.582-229.831 203.591v-.453Zm664.154.453L865.423 409.891l-7.691 365.106 334.798-15.382-93.66-141.609v0ZM452.813 1267.23l203.138-97.72-174.636-135.73-28.502 233.45Zm425.278-98.17 201.779 98.17-27.14-233.9-174.639 135.73Z" fill="#E27625" stroke="#E27625" stroke-width="11.311" stroke-linecap="round" stroke-linejoin="round"/>
  <path d="m1079.81 1267.19-201.785-97.72 16.287 131.2-1.81 55.65 187.308-89.13Zm-627.064 0 188.209 89.13-1.358-55.65 16.288-131.2-203.139 97.72Z" fill="#D5BFB2" stroke="#D5BFB2" stroke-width="11.311" stroke-linecap="round" stroke-linejoin="round"/>
  <path d="m644.178 946.301-167.397-48.862 118.535-54.291 49.315 103.153h-.453Zm244.762 0 49.766-103.606 118.984 54.291-168.75 49.767v-.452Z" fill="#233447" stroke="#233447" stroke-width="11.311" stroke-linecap="round" stroke-linejoin="round"/>
  <path d="m452.813 1267.08 29.407-241.6-186.851 5.43 157.444 236.17Zm598.557-241.6 28.5 241.6 158.35-236.17-186.85-5.43Zm141.61-266.023-334.795 15.382 30.765 171.922 49.766-104.058 118.984 54.291 135.28-137.537v0ZM476.791 897.446l118.535-54.29 49.315 103.152 31.217-171.921-334.794-14.93 135.727 137.989v0Z" fill="#CC6228" stroke="#CC6228" stroke-width="11.311" stroke-linecap="round" stroke-linejoin="round"/>
  <path d="m341.055 759.457 140.251 273.713-4.524-135.724-135.727-137.989Zm716.635 137.989-5.42 135.724 140.25-273.713-134.83 137.989ZM675.849 774.839l-31.67 171.922 39.813 202.689 9.049-267.386-17.192-107.225Zm181.874 0-16.287 106.773 8.144 267.838 39.36-203.142-31.217-171.921v.452Z" fill="#E27525" stroke="#E27525" stroke-width="11.311" stroke-linecap="round" stroke-linejoin="round"/>
  <path d="M888.951 946.346 849.59 1149.48l28.503 19.91 174.187-135.73 5.42-136.176-168.749 48.862Zm-412.159-48.862 4.524 135.726 174.636 135.73 28.051-19.46-39.361-203.134-168.302-48.862h.452Z" fill="#F5841F" stroke="#F5841F" stroke-width="11.311" stroke-linecap="round" stroke-linejoin="round"/>
  <path d="m892.955 1356.33 1.357-55.65-15.382-12.67H654.527l-14.93 12.67 1.358 55.65-188.209-89.13 66.054 54.29 133.465 91.84h228.474l133.921-92.29 65.15-53.84-187.308 89.13h.453Z" fill="#C0AC9D" stroke="#C0AC9D" stroke-width="11.311" stroke-linecap="round" stroke-linejoin="round"/>
  <path d="m878.064 1168.95-28.502-19.45H683.974l-28.05 19.9-16.287 131.21 14.93-12.67h224.402l15.383 12.67-16.288-131.21v-.45Z" fill="#161616" stroke="#161616" stroke-width="11.311" stroke-linecap="round" stroke-linejoin="round"/>
  <path d="m1477.53 474.501 49.76-242.047-75.1-226.212-574.579 425.279 221.239 185.946 312.17 90.938 68.77-80.079-29.86-21.717 47.5-43.433-36.19-28.05 47.5-36.194-31.67-24.431h.46ZM6.242 232.002l50.672 242.499-32.575 23.979 48.41 36.194-36.194 28.502 47.052 43.433-29.86 21.717 68.768 80.079 312.173-90.485 221.235-186.851L81.345 6.242 6.242 232.002Z" fill="#763E1A" stroke="#763E1A" stroke-width="11.311" stroke-linecap="round" stroke-linejoin="round"/>
  <path d="m1411 708.329-312.17-90.485 94.1 141.609-140.25 273.717 185.49-2.26h277.34L1411 708.329Zm-976.332-90.938-312.173 90.938L18.437 1030.91h277.337l185.493 2.26-140.251-273.717 94.104-142.062h-.452Zm423.016 157.444 20.36-343.842 90.484-244.309H564.966l90.485 244.309 20.359 343.842 7.691 107.677v266.928h166.04l.905-266.928 7.238-107.677Z" fill="#F5841F" stroke="#F5841F" stroke-width="11.311" stroke-linecap="round" stroke-linejoin="round"/>
</svg>