<svg fill="none" xmlns="http://www.w3.org/2000/svg" viewBox="0 0 2263 1388">
  <path d="M463.918 271.574c368.898-361.182 967.002-361.182 1335.902 0l44.4 43.469c18.44 18.059 18.44 47.339 0 65.398L1692.34 529.14c-9.22 9.029-24.17 9.029-33.4 0l-61.09-59.819c-257.36-251.97-674.608-251.97-931.961 0l-65.429 64.061c-9.223 9.029-24.175 9.029-33.398 0L415.187 384.683c-18.445-18.059-18.445-47.338 0-65.398l48.731-47.711ZM2113.91 579.098l135.17 132.343c18.44 18.059 18.44 47.338 0 65.398l-609.49 596.751c-18.44 18.06-48.35 18.06-66.79 0l-432.58-423.533c-4.61-4.514-12.09-4.514-16.7 0L690.953 1373.59c-18.444 18.06-48.349 18.06-66.795 0L14.654 776.831c-18.445-18.059-18.445-47.339 0-65.398l135.169-132.342c18.445-18.059 48.351-18.059 66.795 0l432.584 423.539c4.611 4.51 12.087 4.51 16.698 0h.001l432.559-423.539c18.45-18.06 48.35-18.06 66.8-.002v.001l432.58 423.54c4.61 4.51 12.09 4.51 16.7 0l432.57-423.532c18.45-18.059 48.35-18.059 66.8 0Z" fill="#3B99FC"/>
</svg>