<svg xmlns="http://www.w3.org/2000/svg" fill="none" viewBox="0 0 1145 1145">
  <path fill="#F5AC37" d="M572.5 0C888.71 0 1145 256.34 1145 572.5c0 316.21-256.29 572.5-572.5 572.5C256.34 1145 0 888.69 0 572.5 0 256.34 256.34 0 572.5 0Z"/>
  <path fill="#FEFEFD" d="M593.41 612.65h217.54c4.64 0 6.83 0 7.16-6.08a416 416 0 0 0 0-66.55c0-4.3-2.13-6.08-6.8-6.08H378.37c-5.36 0-6.8 1.78-6.8 6.8v63.69c0 8.22 0 8.22 8.58 8.22H593.4Zm200.4-153.14c.63-1.62.63-3.4 0-5a141.5 141.5 0 0 0-12.92-22.54 182.55 182.55 0 0 0-26.49-33.28 87.8 87.8 0 0 0-16.46-16.1 257.2 257.2 0 0 0-107.35-54.39 266.86 266.86 0 0 0-60.83-6.44H377.62c-5.36 0-6.08 2.14-6.08 6.8v127.01c0 5.36 0 6.8 6.8 6.8h412.9s3.58-.72 4.3-2.86h-1.75.03Zm0 227.57a83.6 83.6 0 0 0-18.28 0h-396.8c-5.36 0-7.16 0-7.16 7.16V818.4c0 5.72 0 7.17 7.16 7.17h183.2c8.76.67 17.52.05 26.1-1.78a272.71 272.71 0 0 0 77.67-17.18 142.2 142.2 0 0 0 26.1-12.16h2.5a232.46 232.46 0 0 0 99.83-100.5s2.5-5.42-.31-6.83v-.05ZM299.67 889.96V692.09c0-4.65 0-5.35-5.72-5.35H216.3c-4.3 0-6.07 0-6.07-5.72v-67.99h83c4.64 0 6.44 0 6.44-6.08V539.7c0-4.3 0-5.36-5.72-5.36H216.3c-4.3 0-6.07 0-6.07-5.72v-62.97c0-3.94 0-5 5.71-5h76.93c5.36 0 6.8 0 6.8-6.8V261c0-5.72 0-7.17 7.16-7.17h268.35a409.8 409.8 0 0 1 57.97 6.44 349.75 349.75 0 0 1 111.99 41.5 315.58 315.58 0 0 1 62.96 48.67 344.8 344.8 0 0 1 38.28 47.59 286.99 286.99 0 0 1 27.96 54.74c.9 5 5.7 8.38 10.69 7.53h64.05c8.21 0 8.21 0 8.57 7.88v58.69c0 5.72-2.13 7.16-7.88 7.16h-49.39c-5 0-6.44 0-6.08 6.44a365.51 365.51 0 0 1 0 65.46c0 6.08 0 6.8 6.83 6.8h56.5c2.5 3.23 0 6.44 0 9.7.36 4.14.36 8.34 0 12.49v43.3c0 6.08-1.78 7.89-7.16 7.89h-67.63a8.95 8.95 0 0 0-10.38 6.8 286.11 286.11 0 0 1-75.15 109.49A430.92 430.92 0 0 1 759 833.15c-14.32 8.24-28.26 16.82-42.94 23.63a386.92 386.92 0 0 1-84.45 26.81 440.26 440.26 0 0 1-83.73 6.8H299.56v-.36l.1-.07Z"/>
</svg>