<svg width="2128" height="1862" fill="none" xmlns="http://www.w3.org/2000/svg">
  <path d="M0 0h2128v1862H0V0Z" fill="#F9F5F2"/>
  <path fill-rule="evenodd" clip-rule="evenodd" d="M0 0v1862h2128V0H0Zm337.627 355.222-.012-58.53 364.239.001V1555.08H337.63v-57.56l116.165-117.91V472.717L337.627 355.222Zm540.321 428.613 62.029-72.459V296.693h248.063v414.683l60.6 72.459v51.348H877.948v-51.348Zm912.432-428.613v-58.529h-364.22V1555.08h364.22v-58.22l-116.16-117.25V473.678l116.16-118.456Zm-541.73 712.708-62.03 72.46v414.69H938.556v-414.69l-60.603-72.46v-51.34h370.697v51.34Z" fill="#B6A086"/>
</svg>