<svg xmlns="http://www.w3.org/2000/svg" fill="none" viewBox="0 0 629 729">
  <path fill="#BE7D41" fill-opacity=".98" fill-rule="evenodd" d="M475.29 256.528c32.486-10.515 56.254-41.785 56.254-77.508 0-44.016-35.749-79.614-79.765-79.614-25.376 0-67.145 25.243-102.825 46.032-32.488 18.93-60.22 33.582-60.22 33.582l-153.077 24.131c-9.765-8.271-9.747-18.64-9.84-24.544-.094-5.959 1.958-13.218 7.495-20.193C146.925 141.266 365.82 5.104 445.106.314 547.326-5.86 627.53 79.712 627.53 179.166c0 70.676-40.25 133.425-99.2 162.2l-53.04-84.837Z" clip-rule="evenodd"/>
  <path fill="#D9D9D9" fill-opacity=".98" fill-rule="evenodd" d="M177.175 375.852c-44.017 0-80.1-37.255-80.1-81.271s35.749-79.614 79.765-79.614c25.376 0 67.145 25.242 102.825 46.031 32.488 18.931 60.219 33.583 60.219 33.583l162.918-.414c.094-5.959-1.958-13.217-7.496-20.192-13.613-17.148-232.507-153.31-311.794-158.1C81.292 109.7 1.089 195.271 1.089 294.726c0 79.669 51.146 149.26 122.566 171.483l53.52-90.357Z" clip-rule="evenodd"/>
  <path fill="#A6A6A6" fill-opacity=".98" fill-rule="evenodd" d="M401.389 589.661c18.421 5.966 35.315 9.734 49.603 10.378 99.353 4.509 177.449-79.726 177.449-179.181 0-99.454-78.597-184.545-180.816-178.37-79.286 4.79-298.181 140.952-311.794 158.1-5.537 6.975-7.589 14.233-7.495 20.192.075 4.766.078 12.441 5.212 19.574 1.226 1.703 49.85-2.783 72.85-3.903l84.855-15.257s27.739-16.811 60.227-35.741c35.68-20.789 70.808-45.083 102.818-43.873 43.984 1.663 79.764 35.598 79.764 79.614 0 44.016-36.083 81.271-80.1 81.271-8.901 0-19.697-2.994-31.499-7.799l-21.074 94.995Z" clip-rule="evenodd"/>
  <path fill="#BE7D41" fill-opacity=".98" fill-rule="evenodd" d="M501.713 548.841c.094-5.96-1.958-13.218-7.496-20.193-13.613-17.148-232.507-153.31-311.794-158.099C80.204 364.373 0 449.944 0 549.399 0 648.853 79.703 732.608 179.056 728.1c92.662-4.198 294.912-139.548 312.817-154.715 9.764-8.271 9.747-18.64 9.84-24.544Zm-162.918.413s-27.732-14.652-60.22-33.582c-35.679-20.79-77.449-46.032-102.825-46.032-44.015 0-79.764 35.598-79.764 79.614 0 44.016 36.083 81.271 80.1 81.271 25.639 0 67.005-24.839 102.8-46.257 31.89-19.082 59.909-35.014 59.909-35.014Z" clip-rule="evenodd"/>
</svg>