<svg xmlns="http://www.w3.org/2000/svg" fill="none" viewBox="0 0 1111 1111">
  <circle cx="555.26" cy="555.26" r="555.26" fill="#fff"/>
  <path fill="#BE7C40" d="M945.13 575c-36.4 0-66-29.6-66-66 0-3.75.38-7.42.98-11L809 462.63l52.51 334.04-325.45-218.82L259.5 733.9l311.1 99.38-111.48 83.69a65.48 65.48 0 0 1 5.88 27.09c0 36.39-29.61 66-66.01 66-36.4 0-66-29.61-66-66 0-36.4 29.6-66 66-66a65.56 65.56 0 0 1 39.8 13.46l61.83-46.42-322.1-102.9 343.21-193.66 41.48-316.76-266.25 189.14V276.35c-28.54-7.27-49.73-33.12-49.73-63.88a66.08 66.08 0 0 1 66-66.01 66.08 66.08 0 0 1 66.02 66c0 30.77-21.2 56.62-49.73 63.9v81.5l275.66-195.84-50.91 388.82L817.77 728l-50.72-322.64 126.28 62.84a65.89 65.89 0 0 1 51.8-25.21c36.4 0 66 29.6 66 66s-29.6 66-66 66ZM555.5.25C248.83.24.24 248.84.24 555.5c0 306.66 248.6 555.26 555.26 555.26 306.66 0 555.26-248.6 555.26-555.26C1110.76 248.84 862.16.24 555.5.24Z"/>
  <path fill="#BE7C40" d="M346.69 212.47c0-18.44-15-33.45-33.45-33.45a33.5 33.5 0 0 0-33.45 33.45 33.49 33.49 0 0 0 33.45 33.44c18.44 0 33.45-15 33.45-33.44Zm598.43 263.09c-18.44 0-33.44 15-33.44 33.44 0 18.44 15 33.44 33.44 33.44 18.44 0 33.44-15 33.44-33.44 0-18.44-15-33.44-33.44-33.44ZM398.99 910.62c-18.44 0-33.44 15-33.44 33.44 0 18.44 15 33.44 33.44 33.44 18.45 0 33.44-15 33.44-33.44 0-18.44-15-33.44-33.44-33.44Z"/>
</svg>