<svg width="1024" height="1024" fill="none" xmlns="http://www.w3.org/2000/svg">
  <path d="M512 1024c282.77 0 512-229.23 512-512S794.77 0 512 0 0 229.23 0 512s229.23 512 512 512Z" fill="#fff"/>
  <path d="M480.953 162.82c17.249-9.093 43.496-9.093 60.746 0l176.016 92.795c10.389 5.477 16.095 13.638 17.117 22.063H735V744.11c-.229 9.191-5.988 18.319-17.285 24.275L541.699 861.18c-17.25 9.093-43.497 9.093-60.746 0l-176.017-92.795c-11.249-5.931-16.647-15.123-16.914-24.275a32.078 32.078 0 0 1-.001-2.35l.001-460.941a23.608 23.608 0 0 1-.001-1.937l.001-1.204h.078c.782-8.518 6.229-16.471 16.836-22.063l176.017-92.795ZM707 537l-165.355 87.46c-17.225 9.111-43.433 9.111-60.658 0L316 537.195v205.474l164.987 86.802c9.75 5.217 19.888 10.3 29.76 10.521l.569.008c9.852.032 19.418-4.978 29.117-9.72L707 741.921V537ZM260.424 734c0 17.881 2.06 29.633 6.149 37.912 3.39 6.863 8.476 12.107 17.762 18.489l.53.362c2.038 1.387 4.283 2.839 7.016 4.545l3.223 1.992 9.896 6.025L290.806 827l-11.076-6.749-1.862-1.154c-3.202-1.995-5.857-3.707-8.333-5.392-26.467-18.003-36.337-37.63-36.532-78.461L233 734h27.424ZM498 413a25.12 25.12 0 0 0-3.576 1.53l-175.747 93.094c-.185.097-.361.194-.528.289L318 508l.276.159.401.217 175.747 93.094A25.12 25.12 0 0 0 498 603V413Zm28 0v190a25.021 25.021 0 0 0 3.576-1.53l175.747-93.094c.184-.097.361-.194.528-.289L706 508l-.276-.159-.401-.217-175.747-93.094A25.021 25.021 0 0 0 526 413Zm181-102-158 83 158 83V311Zm-391 0v166l158-83-158-83Zm213.422-123.373c-9.147-4.836-25.697-4.836-34.844 0l-175.901 92.997c-.184.098-.361.194-.528.29L318 281l.276.158.401.218 175.901 92.996c9.147 4.837 25.697 4.837 34.844 0l175.9-92.996c.185-.098.361-.194.528-.289L706 281l-.276-.158-.402-.218-175.9-92.997ZM733.194 197l11.076 6.749 1.862 1.153c3.202 1.995 5.857 3.709 8.333 5.393 26.467 18.003 36.337 37.63 36.532 78.461L791 290h-27.424c0-17.882-2.059-29.633-6.149-37.913-3.389-6.862-8.475-12.107-17.761-18.488l-.531-.362a212.164 212.164 0 0 0-7.016-4.545l-3.223-1.992-9.896-6.025L733.194 197Z" fill="#1969FF"/>
</svg>