<svg width="208" height="182" viewBox="0 0 208 182" fill="none" xmlns="http://www.w3.org/2000/svg">
    <path fill-rule="evenodd" clip-rule="evenodd" d="M0 0V182H208V0H0ZM33.0011 34.7209L33 29L68.6023 29V152L33.0015 152V146.374L44.3559 134.849V46.2055L33.0011 34.7209ZM85.8144 76.6155L91.8774 69.533V29H116.124V69.533L122.047 76.6155V81.6345H85.8144V76.6155ZM175 34.7209L175 29L139.399 29.0001V152L175 152V146.31L163.645 134.849V46.2993L175 34.7209ZM122.048 104.385L115.985 111.467V152H91.7386L91.7386 111.467L85.815 104.385V99.3656L122.048 99.3656V104.385Z" fill="#F9F5F2" />
</svg>