<svg width="1017" height="191" viewBox="0 0 1017 191" fill="none" xmlns="http://www.w3.org/2000/svg">
    <path fill-rule="evenodd" clip-rule="evenodd" d="M0 0V190.75H218V0H0ZM35.04 37.12V31.14H72.13V159.61H35.03V153.73L46.87 141.7V49.1L35.04 37.12ZM90.06 80.88L96.37 73.48V31.14H121.63V73.48L127.8 80.88V86.12H90.06V80.88V80.88ZM182.96 37.12V31.14H145.88V159.61H182.97V153.67L171.14 141.7V49.2L182.97 37.11L182.96 37.12ZM127.8 109.88L121.49 117.28V159.61H96.23V117.27L90.06 109.87V104.64H127.8V109.88Z" fill="#B6A086" />
    <path fill-rule="evenodd" clip-rule="evenodd"
        d="M834.34 29.1C795.07 29.1 771.84 56.61 771.84 93.95C771.84 131.28 795.07 160 834.34 160H835.97C875.24 160 898.47 131.28 898.47 93.95C898.47 56.61 875.24 29.1 835.97 29.1H834.34V29.1ZM835.97 146.97C856.15 146.97 872.5 124.07 872.5 93.95C872.5 63.81 856.15 42.13 835.97 42.13C813.01 42.13 799.43 63.81 799.43 93.95C799.43 124.08 813.01 146.97 835.97 146.97ZM510.43 158.28L507.18 130.59H499.06L492.56 145.25H455.22V101.28H486.07L492.57 111.05H499.07V78.47H492.57L486.07 88.24H455.22V44.27H492.57L499.07 58.93H507.17L510.8 31.23H419.5V37.75L429.25 44.27V145.25L419.5 151.77V158.28H510.43V158.28ZM275 31.24V37.75L284.74 44.27V145.25L275 151.77V158.28H320.46V151.77L310.72 145.25V101.28H364.3V145.25L354.56 151.77V158.28H400.02V151.77L390.28 145.25V44.27L400.02 37.75V31.24H354.56V37.75L364.3 44.27V88.24H310.72V44.27L320.46 37.75V31.24H275V31.24ZM656.55 31.24L653.31 58.93H663.05L672.79 44.27H695.52V145.25L685.78 151.77V158.28H731.24V151.77L721.5 145.25V44.27H742.6L752.35 58.93H762.09L758.84 31.23H656.55V31.24ZM586.66 29C548.98 29 523.1 54.4 523.42 93.13C523.1 131.86 548.98 159.91 586.66 159.91C598.238 159.995 609.519 156.243 618.74 149.24L627.62 158.28H635.45L631.07 119.18H625.53C616.59 135.46 606.13 145.03 586.66 145.03C560.39 145.03 550.24 116.11 550.46 93.13C550.24 70.15 560.39 43.88 586.66 43.88C606.13 43.88 616.59 50.81 625.53 67.09H631.07L635.47 31.24H627.63L618.74 37.02C614.07 33.42 603.04 29 586.66 29V29ZM908.22 37.75L917.96 44.27V145.25L908.22 151.77V158.28H953.68V151.77L943.94 145.25V101.28H959.3L987.18 146.73L979.66 151.77V158.28H1017V152.98L985.02 100.85C1001.41 98.23 1013.75 83.62 1013.75 67.07V65.44C1013.75 46.9 998.31 31.24 979.65 31.24H908.22V37.75V37.75ZM987.27 70.49C989.92 57.17 979.34 44.26 965.81 44.27H943.94V88.24H965.81C976.16 88.22 985.28 80.56 987.27 70.49Z"
        fill="#E7E5E4" />
</svg>