<?xml version="1.0" standalone="no"?>
<!DOCTYPE svg PUBLIC "-//W3C//DTD SVG 20010904//EN"
 "http://www.w3.org/TR/2001/REC-SVG-20010904/DTD/svg10.dtd">
<svg version="1.0" xmlns="http://www.w3.org/2000/svg"
 width="729.000000pt" height="729.000000pt" viewBox="0 0 729.000000 729.000000"
 preserveAspectRatio="xMidYMid meet">
<metadata>
Created by potrace 1.14, written by Peter Selinger 2001-2017
</metadata>
<g transform="translate(0.000000,729.000000) scale(0.100000,-0.100000)"
fill="#000000" stroke="none">
<path d="M4880 7280 c-25 -4 -58 -10 -75 -13 -27 -5 -145 -33 -170 -41 -5 -2
-12 -4 -15 -4 -3 0 -18 -6 -35 -12 -16 -7 -37 -13 -45 -15 -25 -5 -165 -58
-170 -64 -3 -3 -12 -7 -20 -9 -49 -10 -288 -114 -548 -238 -72 -35 -134 -64
-137 -64 -2 -1 -31 -15 -62 -33 -32 -18 -89 -48 -128 -67 -38 -19 -71 -38 -73
-42 -2 -5 -12 -8 -23 -8 -10 0 -19 -4 -19 -9 0 -5 -11 -12 -24 -15 -14 -3 -31
-12 -38 -19 -7 -6 -38 -24 -68 -39 -57 -29 -109 -58 -170 -94 -19 -12 -60 -35
-90 -51 -47 -26 -216 -124 -312 -182 -15 -9 -74 -44 -130 -78 -91 -54 -107
-61 -143 -56 -65 8 -224 8 -305 -1 -101 -11 -109 -12 -155 -21 -22 -4 -47 -9
-55 -10 -29 -6 -141 -36 -163 -44 -12 -5 -60 -24 -107 -42 -47 -19 -87 -36
-90 -39 -3 -3 -34 -20 -70 -39 -77 -40 -158 -91 -220 -140 -24 -20 -53 -43
-64 -51 -47 -36 -256 -253 -256 -265 0 -5 -26 -37 -47 -60 -7 -8 -13 -16 -13
-20 0 -3 -11 -21 -25 -39 -14 -18 -25 -37 -25 -41 0 -5 -6 -16 -14 -24 -53
-62 -194 -400 -206 -493 -1 -4 -6 -22 -11 -40 -10 -34 -14 -56 -28 -148 -23
-147 -21 -451 4 -570 2 -8 11 -51 20 -95 58 -281 222 -602 421 -824 44 -49 44
-51 25 -63 -12 -7 -21 -16 -21 -20 0 -5 -14 -22 -30 -40 -17 -17 -41 -45 -53
-61 -12 -16 -27 -34 -32 -40 -35 -38 -125 -189 -175 -292 -64 -131 -142 -352
-141 -400 0 -2 -4 -19 -9 -36 -5 -18 -12 -49 -15 -70 -3 -21 -8 -53 -11 -71
-11 -60 -12 -372 -3 -437 5 -36 11 -81 14 -101 4 -32 20 -102 44 -195 19 -73
65 -195 73 -195 5 0 7 -4 4 -9 -7 -11 101 -224 154 -302 115 -170 300 -367
422 -449 21 -14 38 -28 38 -32 0 -5 4 -8 9 -8 5 0 36 -17 68 -38 104 -69 352
-179 446 -198 10 -2 26 -5 35 -8 9 -3 32 -8 51 -11 19 -3 37 -8 40 -10 6 -3
75 -12 176 -22 28 -2 77 -4 110 -4 33 1 71 1 85 0 33 -1 40 -1 75 5 17 3 53 8
80 11 28 4 68 11 90 17 22 5 47 11 55 13 8 2 35 8 60 15 25 7 52 14 60 15 8 2
16 4 18 5 2 3 2 3 47 15 17 4 35 10 40 14 6 3 15 6 20 7 21 3 240 87 250 95 5
5 15 9 22 9 7 0 36 11 65 24 29 13 76 33 103 45 179 78 596 287 607 304 4 7 8
8 8 4 0 -4 21 4 48 19 26 15 72 41 102 57 30 17 114 64 185 105 72 41 140 80
152 86 13 6 23 14 23 19 0 4 6 7 13 7 7 0 36 16 66 35 29 19 54 35 56 35 5 0
138 82 340 211 153 97 175 108 215 107 56 -1 230 11 239 16 3 2 27 7 52 10 63
8 186 41 266 72 38 14 74 26 81 28 7 1 18 8 24 14 7 7 16 12 22 12 15 0 151
72 154 81 2 5 9 9 17 9 27 0 225 158 325 261 94 94 210 242 262 333 69 120
162 329 171 383 1 10 6 23 10 29 4 7 14 43 23 80 9 38 18 78 21 89 2 11 6 34
8 50 2 17 6 44 9 60 24 112 24 375 2 525 -2 14 -7 43 -10 65 -3 22 -13 67 -21
100 -9 33 -18 70 -20 83 -25 110 -174 444 -216 482 -3 3 -16 23 -29 45 -14 22
-30 47 -37 55 -105 130 -104 130 -91 144 7 8 22 26 33 40 11 15 25 32 31 39
69 79 195 310 253 462 33 87 79 256 87 320 3 22 7 47 10 55 7 21 17 181 17
280 0 310 -80 613 -237 895 -34 60 -123 193 -142 212 -8 8 -14 18 -14 23 0 9
-203 217 -262 268 -21 18 -49 38 -63 44 -14 6 -25 14 -25 18 0 7 -73 56 -135
92 -96 55 -291 141 -349 153 -11 3 -40 11 -65 19 -42 13 -92 24 -146 31 -11 2
-33 6 -50 10 -45 10 -354 14 -405 5z m285 -998 c74 -15 85 -18 145 -42 54 -21
130 -60 140 -70 3 -3 21 -17 40 -30 139 -95 263 -284 306 -466 17 -73 22 -218
10 -296 -8 -58 -44 -178 -58 -195 -6 -7 -8 -13 -5 -13 10 0 -63 -121 -102
-170 -35 -45 -64 -75 -136 -139 -35 -31 -40 -33 -84 -26 -74 11 -84 13 -116
19 -16 4 -90 9 -163 11 l-133 4 -107 67 c-59 37 -114 74 -123 81 -9 7 -19 10
-22 6 -4 -3 -7 -2 -7 4 0 6 -13 16 -30 23 -16 7 -30 16 -30 21 0 5 -3 8 -7 7
-5 -1 -21 6 -38 16 -16 11 -52 33 -80 50 -27 18 -61 37 -75 44 -14 7 -43 23
-65 37 -22 13 -114 66 -205 116 -91 51 -176 99 -190 108 -14 8 -27 16 -30 16
-6 1 -56 27 -109 58 -20 11 -80 42 -134 69 -106 54 -107 56 -32 94 22 11 59
32 82 47 24 15 45 27 48 27 3 0 53 28 111 63 58 34 130 76 159 92 30 17 95 54
146 83 50 28 95 52 100 52 4 0 9 3 11 8 7 16 349 177 398 187 3 1 32 9 65 19
33 10 71 21 85 25 33 9 172 5 235 -7z m-2755 -1162 c25 -6 50 -13 55 -14 26
-5 192 -76 295 -127 63 -31 119 -56 124 -57 5 0 12 -5 15 -10 3 -5 49 -33 101
-61 52 -29 123 -69 157 -89 145 -85 247 -142 255 -142 4 0 8 -4 8 -10 0 -5 4
-10 9 -10 6 0 36 -15 68 -34 32 -18 78 -45 103 -58 113 -63 132 -75 130 -84
-1 -5 -68 -43 -149 -85 -277 -143 -483 -256 -705 -386 -61 -36 -131 -77 -156
-90 -25 -14 -52 -31 -60 -38 -8 -6 -22 -15 -30 -19 -18 -7 -34 -17 -213 -130
l-138 -87 -126 -4 c-69 -3 -129 -7 -133 -10 -11 -7 -175 79 -224 118 -55 43
-103 91 -151 152 -22 28 -43 52 -48 53 -4 2 -5 8 -1 13 3 5 0 9 -6 9 -6 0 -8
5 -5 10 3 6 1 10 -4 10 -6 0 -11 4 -11 10 0 5 -13 37 -29 72 -26 57 -43 110
-59 178 -12 53 -6 301 8 318 3 2 3 4 14 52 11 48 71 174 109 229 42 60 140
159 197 198 83 56 197 104 315 131 54 12 229 8 285 -8z m2722 -1254 c18 -3 43
-8 56 -11 12 -3 32 -7 43 -10 65 -14 220 -80 227 -97 2 -4 10 -8 18 -8 8 0 14
-4 14 -9 0 -5 8 -12 19 -16 49 -15 191 -178 249 -285 45 -82 78 -225 84 -365
1 -15 -11 -116 -18 -150 -15 -82 -97 -275 -116 -275 -4 0 -8 -5 -8 -11 0 -25
-87 -122 -169 -187 -25 -20 -48 -39 -51 -42 -10 -11 -130 -71 -172 -86 -56
-20 -69 -23 -153 -36 l-70 -11 -101 64 c-55 35 -109 70 -120 76 -10 7 -50 32
-89 55 -38 23 -72 45 -75 48 -3 3 -18 12 -35 20 -16 8 -38 20 -47 28 -17 14
-85 54 -128 75 -14 6 -27 14 -30 17 -4 5 -95 57 -295 170 -22 13 -67 37 -100
55 -33 18 -97 53 -142 78 -46 25 -83 43 -83 39 0 -4 -4 -2 -8 4 -4 6 -72 44
-151 83 -159 80 -154 71 -65 122 263 154 264 155 322 192 24 15 45 27 47 27 3
0 84 47 181 105 97 58 178 105 180 105 3 0 29 16 59 35 30 19 55 32 55 28 0
-3 8 1 18 9 9 9 28 19 42 23 14 4 27 11 30 14 7 9 162 74 226 95 54 17 73 22
139 32 22 3 41 7 42 8 4 3 143 -3 175 -8z m-2783 -1282 c50 -8 49 -8 71 -17 8
-3 33 -11 55 -17 22 -7 59 -20 82 -31 24 -10 45 -19 49 -19 6 0 281 -136 304
-150 64 -41 310 -177 310 -172 0 4 4 2 8 -4 4 -6 21 -19 37 -28 17 -9 46 -26
65 -37 154 -91 258 -149 268 -149 7 0 12 -4 12 -9 0 -5 8 -11 18 -14 14 -5 86
-43 187 -100 11 -6 22 -11 25 -10 3 0 13 -7 23 -17 17 -17 13 -21 -110 -90
-70 -41 -130 -76 -133 -79 -3 -3 -21 -14 -40 -23 -41 -20 -93 -51 -100 -59 -3
-3 -12 -8 -20 -12 -8 -4 -22 -11 -30 -17 -19 -13 -256 -152 -302 -178 -19 -11
-46 -26 -59 -34 -13 -7 -26 -15 -29 -18 -3 -3 -23 -15 -45 -27 -22 -11 -65
-35 -95 -52 -142 -80 -390 -191 -460 -206 -8 -2 -15 -4 -15 -5 0 -2 -13 -5
-65 -15 -83 -17 -229 -6 -327 23 -49 15 -156 65 -171 79 -7 7 -17 13 -22 13
-13 0 -122 91 -164 138 -50 55 -106 134 -106 149 0 6 -4 13 -8 15 -10 4 -60
117 -66 149 -3 13 -5 24 -6 24 -1 0 -3 7 -5 15 -2 8 -8 34 -13 57 -5 23 -10
88 -9 145 0 201 72 386 207 531 93 100 196 168 325 215 73 27 92 31 175 39 36
3 66 6 67 7 4 4 64 -2 112 -10z"/>
</g>
</svg>
