
<svg width="1017" height="191" fill="none" xmlns="http://www.w3.org/2000/svg"><path fill-rule="evenodd" clip-rule="evenodd" d="M0 0v190.75h218V0H0Zm35.04 37.12v-5.98h37.09v128.47h-37.1v-5.88l11.84-12.03V49.1L35.04 37.12Zm55.02 43.76 6.31-7.4V31.14h25.26v42.34l6.17 7.4v5.24H90.06v-5.24Zm92.9-43.76v-5.98h-37.08v128.47h37.09v-5.94l-11.83-11.97V49.2l11.83-12.09Zm-55.16 72.76-6.31 7.4v42.33H96.23v-42.34l-6.17-7.4v-5.23h37.74v5.24Z" fill="#B6A086"/><path fill-rule="evenodd" clip-rule="evenodd" d="M834.34 29.1c-39.27 0-62.5 27.51-62.5 64.85 0 37.33 23.23 66.05 62.5 66.05h1.63c39.27 0 62.5-28.72 62.5-66.05 0-37.34-23.23-64.85-62.5-64.85h-1.63Zm1.63 117.87c20.18 0 36.53-22.9 36.53-53.02 0-30.14-16.35-51.82-36.53-51.82-22.96 0-36.54 21.68-36.54 51.82 0 30.13 13.58 53.02 36.54 53.02Zm-325.54 11.31-3.25-27.69h-8.12l-6.5 14.66h-37.34v-43.97h30.85l6.5 9.77h6.5V78.47h-6.5l-6.5 9.77h-30.85V44.27h37.35l6.5 14.66h8.1l3.63-27.7h-91.3v6.52l9.75 6.52v100.98l-9.75 6.52v6.51h90.93ZM275 31.24v6.51l9.74 6.52v100.98l-9.74 6.52v6.51h45.46v-6.51l-9.74-6.52v-43.97h53.58v43.97l-9.74 6.52v6.51h45.46v-6.51l-9.74-6.52V44.27l9.74-6.52v-6.51h-45.46v6.51l9.74 6.52v43.97h-53.58V44.27l9.74-6.52v-6.51H275Zm381.55 0-3.24 27.69h9.74l9.74-14.66h22.73v100.98l-9.74 6.52v6.51h45.46v-6.51l-9.74-6.52V44.27h21.1l9.75 14.66h9.74l-3.25-27.7H656.55ZM586.66 29c-37.68 0-63.56 25.4-63.24 64.13-.32 38.73 25.56 66.78 63.24 66.78a52.4 52.4 0 0 0 32.08-10.67l8.88 9.04h7.83l-4.38-39.1h-5.54c-8.94 16.28-19.4 25.85-38.87 25.85-26.27 0-36.42-28.92-36.2-51.9-.22-22.98 9.93-49.25 36.2-49.25 19.47 0 29.93 6.93 38.87 23.21h5.54l4.4-35.85h-7.84l-8.89 5.78c-4.67-3.6-15.7-8.02-32.08-8.02Zm321.56 8.75 9.74 6.52v100.98l-9.74 6.52v6.51h45.46v-6.51l-9.74-6.52v-43.97h15.36l27.88 45.45-7.52 5.04v6.51H1017v-5.3l-31.98-52.13c16.39-2.62 28.73-17.23 28.73-33.78v-1.63c0-18.54-15.44-34.2-34.1-34.2h-71.43v6.51Zm79.05 32.74c2.65-13.32-7.93-26.23-21.46-26.22h-21.87v43.97h21.87c10.35-.02 19.47-7.68 21.46-17.75Z" fill="#121212"/></svg>